<svg width="49" height="38" viewBox="0 0 49 38" fill="none" xmlns="http://www.w3.org/2000/svg">
<path d="M0 10C0 4.47715 4.47715 0 10 0H39C44.5228 0 49 4.47715 49 10V28C49 33.5228 44.5228 38 39 38H10C4.47715 38 0 33.5228 0 28V10Z" fill="#6930C3"/>
<path fill-rule="evenodd" clip-rule="evenodd" d="M29.5417 10.375C32.2962 10.375 34.5292 12.1379 34.5292 14.3125C34.5292 16.4871 32.2962 18.25 29.5417 18.25C26.7872 18.25 24.5542 16.4871 24.5542 14.3125C24.5542 12.1379 26.7872 10.375 29.5417 10.375ZM29.5417 12C27.924 12 26.6125 13.0353 26.6125 14.3125C26.6125 15.5897 27.924 16.625 29.5417 16.625C31.1594 16.625 32.4709 15.5897 32.4709 14.3125C32.4709 13.0353 31.1594 12 29.5417 12ZM24.2298 13.0617C24.0803 13.458 24 13.8778 24 14.3125C24 14.7471 24.0803 15.1669 24.2298 15.5632L9.75002 15.5625C8.87557 15.5625 8.16669 15.0029 8.16669 14.3125C8.16669 13.6221 8.87557 13.0625 9.75002 13.0625L24.2298 13.0617ZM34.8536 13.0617L38.25 13.0625C39.1245 13.0625 39.8334 13.6221 39.8334 14.3125C39.8334 15.0029 39.1245 15.5625 38.25 15.5625L34.8536 15.5632C35.0031 15.1669 35.0834 14.7471 35.0834 14.3125C35.0834 13.8778 35.0031 13.458 34.8536 13.0617ZM17.6667 19.75C20.4212 19.75 22.6542 21.5129 22.6542 23.6875C22.6542 25.8621 20.4212 27.625 17.6667 27.625C14.9122 27.625 12.6792 25.8621 12.6792 23.6875C12.6792 21.5129 14.9122 19.75 17.6667 19.75ZM17.6667 21.375C16.049 21.375 14.7375 22.4103 14.7375 23.6875C14.7375 24.9647 16.049 26 17.6667 26C19.2844 26 20.5959 24.9647 20.5959 23.6875C20.5959 22.4103 19.2844 21.375 17.6667 21.375ZM12.3548 22.4367C12.2053 22.833 12.125 23.2528 12.125 23.6875C12.125 24.1221 12.2053 24.5419 12.3548 24.9382L9.75002 24.9375C8.87557 24.9375 8.16669 24.3779 8.16669 23.6875C8.16669 22.9971 8.87557 22.4375 9.75002 22.4375L12.3548 22.4367ZM22.9786 22.4367L38.25 22.4375C39.1245 22.4375 39.8334 22.9971 39.8334 23.6875C39.8334 24.3779 39.1245 24.9375 38.25 24.9375L22.9786 24.9382C23.1281 24.5419 23.2084 24.1221 23.2084 23.6875C23.2084 23.2528 23.1281 22.833 22.9786 22.4367Z" fill="white"/>
</svg>
