<svg width="22" height="22" viewBox="0 0 22 22" fill="none" xmlns="http://www.w3.org/2000/svg">
<path d="M17 14.75H18.5V18.5H17V14.75ZM14 11H15.5V18.5H14V11ZM7.25 18.5C6.256 18.5 5.30301 18.0999 4.60001 17.3999C3.89701 16.6999 3.501 15.74 3.5 14.75H5C5 15.2 5.132 15.63 5.379 16C5.626 16.37 5.97801 16.6601 6.38901 16.8301C6.80001 17.0001 7.252 17.04 7.689 16.96C8.125 16.87 8.526 16.6598 8.841 16.3398C9.156 16.0298 9.37 15.6299 9.457 15.1899C9.544 14.7499 9.49901 14.3001 9.32901 13.8901C9.15801 13.4801 8.87 13.1299 8.5 12.8799C8.13 12.6299 7.695 12.5 7.25 12.5V11C8.245 11 9.19801 11.4001 9.90201 12.1001C10.605 12.8001 11 13.76 11 14.75C11 15.74 10.605 16.6999 9.90201 17.3999C9.19801 18.0999 8.245 18.5 7.25 18.5Z" fill="#040EFF"/>
<path d="M20 0.5H2C1.602 0.5 1.221 0.659941 0.940002 0.939941C0.659002 1.21994 0.5 1.6 0.5 2V20C0.5 20.4 0.659002 20.7801 0.940002 21.0601C1.221 21.3401 1.602 21.5 2 21.5H20C20.398 21.5 20.779 21.3401 21.06 21.0601C21.341 20.7801 21.499 20.4 21.5 20V2C21.5 1.6 21.341 1.21994 21.06 0.939941C20.779 0.659941 20.398 0.5 20 0.5ZM20 7.25H9.5V2H20V7.25ZM8 2V7.25H2V2H8ZM2 20V8.75H20L20.002 20H2Z" fill="#040EFF"/>
</svg>
