<svg width="22" height="22" viewBox="0 0 22 22" fill="none" xmlns="http://www.w3.org/2000/svg">
<path fill-rule="evenodd" clip-rule="evenodd" d="M17.88 15.5L20.83 18.4502C21.53 19.1502 21.53 20.28 20.83 20.98C20.13 21.67 19 21.67 18.3 20.98L15.36 18.0298C15.12 17.7998 15.12 17.4199 15.36 17.1899L17.04 15.5C17.27 15.27 17.65 15.27 17.88 15.5ZM9.57996 0.5C14.51 0.5 18.51 4.50018 18.51 9.43018C18.51 14.3602 14.51 18.3599 9.57996 18.3599C4.64996 18.3599 0.650024 14.3602 0.650024 9.43018C0.650024 4.50018 4.64996 0.5 9.57996 0.5ZM9.57996 2.87988C5.95996 2.87988 3.03003 5.81018 3.03003 9.43018C3.03003 13.0502 5.95996 15.98 9.57996 15.98C13.2 15.98 16.13 13.0502 16.13 9.43018C16.13 5.81018 13.2 2.87988 9.57996 2.87988ZM11.75 3.87988C13.45 4.54988 14.76 5.97021 15.29 7.72021C15.48 8.35021 15.12 9.0202 14.49 9.2002C13.89 9.3802 13.25 9.07023 13.03 8.49023L13 8.41016C12.69 7.36016 11.9 6.5001 10.88 6.1001C10.27 5.8601 9.96995 5.17006 10.2 4.56006C10.44 3.95006 11.14 3.63988 11.75 3.87988Z" fill="#1C62E8"/>
</svg>
