<svg width="30" height="31" viewBox="0 0 30 31" fill="none" xmlns="http://www.w3.org/2000/svg">
<g filter="url(#filter0_d_157_530)">
<path d="M21 15.75H22.5V19.5H21V15.75ZM18 12H19.5V19.5H18V12ZM11.25 19.5C10.2558 19.4988 9.30267 19.1033 8.59966 18.4003C7.89666 17.6973 7.50119 16.7442 7.5 15.75H9C9 16.195 9.13196 16.63 9.37919 17C9.62643 17.37 9.97783 17.6584 10.389 17.8287C10.8001 17.999 11.2525 18.0436 11.689 17.9568C12.1254 17.87 12.5263 17.6557 12.841 17.341C13.1557 17.0263 13.37 16.6254 13.4568 16.189C13.5436 15.7525 13.499 15.3001 13.3287 14.889C13.1584 14.4778 12.87 14.1264 12.5 13.8792C12.13 13.632 11.695 13.5 11.25 13.5V12C12.2446 12 13.1984 12.3951 13.9017 13.0983C14.6049 13.8016 15 14.7554 15 15.75C15 16.7446 14.6049 17.6984 13.9017 18.4017C13.1984 19.1049 12.2446 19.5 11.25 19.5Z" fill="#040EFF"/>
<path d="M24 1.5H6C5.6023 1.5004 5.221 1.65856 4.93978 1.93978C4.65856 2.221 4.5004 2.6023 4.5 3V21C4.5004 21.3977 4.65856 21.779 4.93978 22.0602C5.221 22.3414 5.6023 22.4996 6 22.5H24C24.3976 22.4994 24.7788 22.3412 25.06 22.06C25.3412 21.7788 25.4994 21.3976 25.5 21V3C25.4996 2.6023 25.3414 2.221 25.0602 1.93978C24.779 1.65856 24.3977 1.5004 24 1.5ZM24 8.25H13.5V3H24V8.25ZM12 3V8.25H6V3H12ZM6 21V9.75H24L24.0015 21H6Z" fill="#040EFF"/>
</g>
<defs>
<filter id="filter0_d_157_530" x="-1" y="0" width="32" height="32" filterUnits="userSpaceOnUse" color-interpolation-filters="sRGB">
<feFlood flood-opacity="0" result="BackgroundImageFix"/>
<feColorMatrix in="SourceAlpha" type="matrix" values="0 0 0 0 0 0 0 0 0 0 0 0 0 0 0 0 0 0 127 0" result="hardAlpha"/>
<feOffset dy="4"/>
<feGaussianBlur stdDeviation="2"/>
<feComposite in2="hardAlpha" operator="out"/>
<feColorMatrix type="matrix" values="0 0 0 0 0 0 0 0 0 0 0 0 0 0 0 0 0 0 0.25 0"/>
<feBlend mode="normal" in2="BackgroundImageFix" result="effect1_dropShadow_157_530"/>
<feBlend mode="normal" in="SourceGraphic" in2="effect1_dropShadow_157_530" result="shape"/>
</filter>
</defs>
</svg>
