<svg width="40" height="32" viewBox="0 0 40 32" fill="none" xmlns="http://www.w3.org/2000/svg">
<g filter="url(#filter0_d_102_1465)">
<path fill-rule="evenodd" clip-rule="evenodd" d="M25.5416 6.375C28.2961 6.375 30.5291 8.13788 30.5291 10.3125C30.5291 12.4871 28.2961 14.25 25.5416 14.25C22.7871 14.25 20.5541 12.4871 20.5541 10.3125C20.5541 8.13788 22.7871 6.375 25.5416 6.375ZM25.5416 8C23.9239 8 22.6125 9.03534 22.6125 10.3125C22.6125 11.5897 23.9239 12.625 25.5416 12.625C27.1594 12.625 28.4708 11.5897 28.4708 10.3125C28.4708 9.03534 27.1594 8 25.5416 8ZM20.2298 9.06168C20.0802 9.45799 20 9.87784 20 10.3125C20 10.7471 20.0802 11.1669 20.2298 11.5632L5.74996 11.5625C4.87551 11.5625 4.16663 11.0029 4.16663 10.3125C4.16663 9.62214 4.87551 9.0625 5.74996 9.0625L20.2298 9.06168ZM30.8535 9.06168L34.25 9.0625C35.1244 9.0625 35.8333 9.62214 35.8333 10.3125C35.8333 11.0029 35.1244 11.5625 34.25 11.5625L30.8536 11.5632C31.003 11.1669 31.0833 10.7471 31.0833 10.3125C31.0833 9.87784 31.003 9.45799 30.8535 9.06168ZM13.6666 15.75C16.4211 15.75 18.6541 17.5129 18.6541 19.6875C18.6541 21.8621 16.4211 23.625 13.6666 23.625C10.9121 23.625 8.67913 21.8621 8.67913 19.6875C8.67913 17.5129 10.9121 15.75 13.6666 15.75ZM13.6666 17.375C12.0489 17.375 10.7375 18.4103 10.7375 19.6875C10.7375 20.9647 12.0489 22 13.6666 22C15.2844 22 16.5958 20.9647 16.5958 19.6875C16.5958 18.4103 15.2844 17.375 13.6666 17.375ZM8.35476 18.4367C8.20525 18.833 8.12496 19.2528 8.12496 19.6875C8.12496 20.1221 8.20522 20.5419 8.35469 20.9382L5.74996 20.9375C4.87551 20.9375 4.16663 20.3779 4.16663 19.6875C4.16663 18.9971 4.87551 18.4375 5.74996 18.4375L8.35476 18.4367ZM18.9785 18.4367L34.25 18.4375C35.1244 18.4375 35.8333 18.9971 35.8333 19.6875C35.8333 20.3779 35.1244 20.9375 34.25 20.9375L18.9785 20.9382C19.128 20.5419 19.2083 20.1221 19.2083 19.6875C19.2083 19.2528 19.128 18.833 18.9785 18.4367Z" fill="white"/>
</g>
<defs>
<filter id="filter0_d_102_1465" x="-3" y="0" width="46" height="38" filterUnits="userSpaceOnUse" color-interpolation-filters="sRGB">
<feFlood flood-opacity="0" result="BackgroundImageFix"/>
<feColorMatrix in="SourceAlpha" type="matrix" values="0 0 0 0 0 0 0 0 0 0 0 0 0 0 0 0 0 0 127 0" result="hardAlpha"/>
<feOffset dy="4"/>
<feGaussianBlur stdDeviation="2"/>
<feComposite in2="hardAlpha" operator="out"/>
<feColorMatrix type="matrix" values="0 0 0 0 0 0 0 0 0 0 0 0 0 0 0 0 0 0 0.25 0"/>
<feBlend mode="normal" in2="BackgroundImageFix" result="effect1_dropShadow_102_1465"/>
<feBlend mode="normal" in="SourceGraphic" in2="effect1_dropShadow_102_1465" result="shape"/>
</filter>
</defs>
</svg>
