<svg width="24" height="23" viewBox="0 0 24 23" fill="none" xmlns="http://www.w3.org/2000/svg">
<g filter="url(#filter0_d_159_557)">
<path d="M21 0.5H3C2.6023 0.500397 2.221 0.65856 1.93978 0.939778C1.65856 1.221 1.5004 1.6023 1.5 2V20C1.5004 20.3977 1.65856 20.779 1.93978 21.0602C2.221 21.3414 2.6023 21.4996 3 21.5H21C21.3976 21.4994 21.7788 21.3412 22.06 21.06C22.3412 20.7788 22.4994 20.3976 22.5 20V2C22.4996 1.6023 22.3414 1.221 22.0602 0.939778C21.779 0.65856 21.3977 0.500397 21 0.5ZM21 7.25H10.5V2H21V7.25ZM9 2V7.25H3V2H9ZM3 20V8.75H21L21.0015 20H3Z" fill="white"/>
</g>
<defs>
<filter id="filter0_d_159_557" x="-2.5" y="0.5" width="29" height="29" filterUnits="userSpaceOnUse" color-interpolation-filters="sRGB">
<feFlood flood-opacity="0" result="BackgroundImageFix"/>
<feColorMatrix in="SourceAlpha" type="matrix" values="0 0 0 0 0 0 0 0 0 0 0 0 0 0 0 0 0 0 127 0" result="hardAlpha"/>
<feOffset dy="4"/>
<feGaussianBlur stdDeviation="2"/>
<feComposite in2="hardAlpha" operator="out"/>
<feColorMatrix type="matrix" values="0 0 0 0 0 0 0 0 0 0 0 0 0 0 0 0 0 0 0.25 0"/>
<feBlend mode="normal" in2="BackgroundImageFix" result="effect1_dropShadow_159_557"/>
<feBlend mode="normal" in="SourceGraphic" in2="effect1_dropShadow_159_557" result="shape"/>
</filter>
</defs>
</svg>
